<?xml version="1.0" encoding="UTF-8" standalone="no"?>
<!DOCTYPE svg PUBLIC "-//W3C//DTD SVG 20010904//EN"
              "http://www.w3.org/TR/2001/REC-SVG-20010904/DTD/svg10.dtd">

<svg xmlns="http://www.w3.org/2000/svg"
     width="2em" height="2em"
     viewBox="0 0 716 716">
  <path id="dark"
        fill="#ff7f00"
        d="M 282.00,75.00
           C 282.00,75.00 282.00,152.00 282.00,152.00
             282.05,155.68 282.27,159.77 284.70,162.77
             288.51,167.48 295.55,166.37 298.07,160.95
             299.16,158.59 298.99,155.57 299.00,153.00
             299.00,153.00 299.00,75.00 299.00,75.00
             304.65,76.80 309.23,80.71 314.00,84.14
             314.00,84.14 339.00,102.42 339.00,102.42
             343.48,105.66 350.09,112.03 355.98,110.55
             362.79,108.85 363.86,100.51 357.88,95.04
             357.88,95.04 310.00,59.63 310.00,59.63
             305.08,55.97 296.31,48.63 290.00,49.25
             284.62,49.79 274.40,58.22 269.72,61.69
             269.72,61.69 229.17,91.19 229.17,91.19
             223.96,94.84 215.38,103.35 223.23,109.26
             228.91,113.55 236.40,107.78 241.04,104.43
             241.04,104.43 282.00,75.00 282.00,75.00 Z
           M 185.00,297.00
           C 185.00,297.00 200.00,285.12 200.00,285.12
             200.00,285.12 225.17,265.67 225.17,265.67
             225.17,265.67 239.95,254.65 239.95,254.65
             248.04,247.91 245.46,238.47 238.00,236.90
             233.12,235.87 224.83,243.50 221.00,246.37
             221.00,246.37 178.00,278.00 178.00,278.00
             178.00,278.00 178.00,216.00 178.00,216.00
             177.98,212.96 178.10,209.16 176.34,206.41
             173.53,202.35 165.13,202.01 162.31,206.41
             160.78,208.60 161.01,212.30 161.00,215.00
             161.00,215.00 161.00,292.00 161.00,292.00
             161.02,303.26 165.25,303.98 174.00,310.36
             174.00,310.36 202.58,330.95 202.58,330.95
             202.58,330.95 228.09,349.43 228.09,349.43
             231.69,351.88 235.34,354.84 239.98,353.49
             245.07,352.00 247.35,345.70 244.99,341.09
             243.94,339.03 241.53,337.08 239.71,335.67
             239.71,335.67 209.42,313.95 209.42,313.95
             209.42,313.95 185.00,297.00 185.00,297.00 Z
           M 405.00,278.00
           C 405.00,278.00 366.96,249.71 366.96,249.71
             366.96,249.71 352.00,238.73 352.00,238.73
             342.05,232.67 336.05,243.77 337.74,248.54
             339.22,252.76 349.16,258.99 353.00,261.87
             353.00,261.87 381.42,283.56 381.42,283.56
             387.24,287.91 394.25,291.59 398.00,298.00
             391.54,300.24 382.92,307.53 377.00,311.71
             377.00,311.71 340.15,338.52 340.15,338.52
             333.76,344.48 338.13,355.06 347.00,353.76
             350.77,353.21 354.90,349.79 358.00,347.58
             358.00,347.58 378.00,333.12 378.00,333.12
             378.00,333.12 409.00,310.77 409.00,310.77
             417.55,304.24 421.98,303.26 422.00,292.00
             422.00,292.00 422.00,215.00 422.00,215.00
             421.99,212.30 422.22,208.60 420.69,206.29
             417.96,202.14 409.74,202.55 406.85,206.29
             404.75,209.03 405.01,213.71 405.00,217.00
             405.00,217.00 405.00,278.00 405.00,278.00 Z
           M 443.00,345.00
           C 443.00,345.00 487.91,376.95 487.91,376.95
             492.73,380.44 501.96,383.64 504.82,375.94
             506.94,370.22 502.11,365.61 497.91,362.58
             497.91,362.58 467.00,339.88 467.00,339.88
             467.00,339.88 448.00,326.15 448.00,326.15
             444.97,323.95 439.65,320.04 436.00,319.43
             430.12,318.45 422.65,325.40 418.00,328.71
             418.00,328.71 380.00,356.00 380.00,356.00
             375.37,359.30 366.33,364.78 364.35,370.04
             360.95,379.09 370.05,383.76 379.00,378.54
             379.00,378.54 412.00,354.85 412.00,354.85
             413.99,353.41 421.66,346.82 423.85,347.53
             426.42,348.36 426.00,353.88 426.00,356.00
             426.00,356.00 426.00,423.00 426.00,423.00
             426.01,425.94 425.79,429.26 427.31,431.89
             430.13,436.77 436.93,437.24 440.44,432.85
             443.15,429.46 442.99,424.12 443.00,420.00
             443.00,420.00 443.00,345.00 443.00,345.00 Z
           M 329.00,568.00
           C 332.27,562.41 337.55,559.58 342.58,555.67
             342.58,555.67 373.00,532.77 373.00,532.77
             377.29,529.48 387.31,523.08 388.55,518.00
             390.83,508.70 381.11,504.74 374.00,509.34
             374.00,509.34 321.00,548.00 321.00,548.00
             321.00,548.00 321.00,485.00 321.00,485.00
             321.00,482.60 321.20,479.25 319.98,477.13
             317.10,472.13 309.26,472.17 305.82,476.53
             303.71,479.22 304.01,483.74 304.00,487.00
             304.00,487.00 304.00,560.00 304.00,560.00
             304.02,574.85 309.81,574.76 321.00,583.23
             321.00,583.23 351.72,605.41 351.72,605.41
             351.72,605.41 375.04,622.09 375.04,622.09
             381.71,625.68 391.09,622.77 389.34,614.00
             388.19,608.26 379.53,603.26 375.00,599.87
             375.00,599.87 350.00,581.78 350.00,581.78
             344.31,577.55 335.30,570.41 329.00,568.00 Z
           M 549.00,548.00
           C 549.00,548.00 496.00,508.84 496.00,508.84
             487.29,503.87 478.46,511.41 481.98,518.99
             484.05,523.42 491.05,527.81 495.00,530.89
             495.00,530.89 526.00,554.35 526.00,554.35
             531.44,558.50 537.93,561.66 541.00,568.00
             534.49,570.50 522.07,580.58 516.01,585.08
             516.01,585.08 484.12,608.35 484.12,608.35
             478.59,612.91 479.49,620.75 486.02,623.26
             491.18,625.24 495.99,621.80 500.00,619.00
             500.00,619.00 526.00,600.00 526.00,600.00
             526.00,600.00 551.00,581.73 551.00,581.73
             560.91,574.45 565.98,574.12 566.00,561.00
             566.00,561.00 566.00,486.00 566.00,486.00
             566.00,482.94 566.32,478.91 564.26,476.42
             561.03,472.48 552.94,472.06 550.02,477.13
             548.80,479.25 549.00,482.60 549.00,485.00
             549.00,485.00 549.00,548.00 549.00,548.00 Z" />
  
  <path id="light"
        fill="#ffc082"
        d="M 160.00,115.65
           C 151.06,116.83 144.08,125.37 149.09,133.99
             151.76,138.58 161.36,144.70 166.00,148.12
             166.00,148.12 251.00,210.00 251.00,210.00
             251.00,210.00 269.00,223.14 269.00,223.14
             271.83,225.17 276.37,227.99 277.98,231.04
             279.19,233.35 278.99,236.44 279.00,239.00
             279.00,239.00 279.00,384.00 279.00,384.00
             279.01,387.44 278.85,390.75 280.23,394.00
             282.85,400.19 299.91,411.39 306.00,415.88
             306.00,415.88 389.00,478.01 389.00,478.01
             389.00,478.01 411.00,494.63 411.00,494.63
             416.93,499.08 420.85,500.14 421.00,508.00
             421.00,508.00 421.00,654.00 421.00,654.00
             421.01,662.32 422.12,671.88 432.53,672.67
             447.14,673.78 446.00,662.17 446.00,652.00
             446.00,652.00 446.00,636.00 446.00,636.00
             446.00,636.00 446.00,511.00 446.00,511.00
             446.00,508.54 445.79,505.37 447.02,503.17
             448.37,500.76 452.71,497.84 455.00,496.13
             455.00,496.13 471.00,484.58 471.00,484.58
             471.00,484.58 548.00,428.42 548.00,428.42
             548.00,428.42 570.00,412.37 570.00,412.37
             575.70,408.06 580.15,403.79 576.99,396.00
             574.20,389.11 566.82,385.56 560.00,389.05
             560.00,389.05 545.00,399.71 545.00,399.71
             545.00,399.71 512.00,423.58 512.00,423.58
             512.00,423.58 458.00,462.63 458.00,462.63
             458.00,462.63 443.00,473.42 443.00,473.42
             441.08,474.81 437.21,478.01 435.00,478.35
             431.67,478.88 427.54,474.82 425.00,472.88
             425.00,472.88 404.00,457.37 404.00,457.37
             404.00,457.37 328.00,400.99 328.00,400.99
             328.00,400.99 312.00,389.13 312.00,389.13
             309.56,387.30 305.44,384.54 304.02,381.91
             302.80,379.65 303.01,376.52 303.00,374.00
             303.00,374.00 303.00,243.00 303.00,243.00
             303.00,239.76 302.89,234.94 304.28,232.01
             305.93,228.53 309.93,225.91 313.00,223.71
             313.00,223.71 330.00,211.42 330.00,211.42
             330.00,211.42 413.00,150.98 413.00,150.98
             417.54,147.82 431.63,138.15 433.83,133.96
             437.68,126.59 432.94,117.38 425.00,115.75
             420.40,114.80 417.58,117.12 414.00,119.59
             414.00,119.59 396.00,132.42 396.00,132.42
             396.00,132.42 321.00,187.02 321.00,187.02
             321.00,187.02 300.00,202.34 300.00,202.34
             297.13,204.32 293.68,207.58 290.00,206.50
             287.50,205.77 282.36,201.45 280.00,199.74
             280.00,199.74 259.00,184.47 259.00,184.47
             259.00,184.47 194.00,137.15 194.00,137.15
             194.00,137.15 173.91,122.49 173.91,122.49
             169.37,119.24 165.71,116.20 160.00,115.65 Z" />
</svg>
